<svg width="40" height="664" viewBox="0 0 40 664" fill="none" xmlns="http://www.w3.org/2000/svg">
<mask id="path-1-outside-1_524_748" maskUnits="userSpaceOnUse" x="18" y="39" width="3.00003" height="625" fill="black">
<rect fill="white" x="18" y="39" width="3.00003" height="625"/>
<path d="M19 664L19 39L20 39L20 664L19 664Z"/>
</mask>
<path d="M19 664L19 39L20 39L20 664L19 664Z" fill="url(#paint0_linear_524_748)"/>
<path d="M19 664L19 39L20 39L20 664L19 664Z" fill="white"/>
<path d="M19 664L20 664L20 39L19 39L18 39L18 664L19 664ZM20 39L19 39L19 664L20 664L21 664L21 39L20 39Z" fill="url(#paint1_linear_524_748)" mask="url(#path-1-outside-1_524_748)"/>
<path d="M20 40C8.95431 40 -3.91405e-07 31.0457 -8.74228e-07 20L-1.04907e-06 16C-1.43533e-06 7.16344 7.16344 -3.13124e-07 16 -6.99382e-07L24 -1.04907e-06C32.8366 -1.43533e-06 40 7.16344 40 16L40 20C40 31.0457 31.0457 40 20 40Z" fill="white"/>
<defs>
<linearGradient id="paint0_linear_524_748" x1="19.5" y1="664" x2="19.5" y2="39" gradientUnits="userSpaceOnUse">
<stop offset="0.778846" stop-color="#38FFFF"/>
<stop offset="1" stop-color="#1D71F3"/>
</linearGradient>
<linearGradient id="paint1_linear_524_748" x1="19.5" y1="664" x2="19.5" y2="39" gradientUnits="userSpaceOnUse">
<stop offset="0.557692" stop-color="#D8D8D8" stop-opacity="0.45"/>
<stop offset="0.9375" stop-color="#D8D8D8"/>
</linearGradient>
</defs>
</svg>
