<svg width="25" height="25" viewBox="0 0 25 25" fill="none" xmlns="http://www.w3.org/2000/svg">
<path d="M14.3917 8.92391C13.4075 8.35046 13.4075 6.92865 14.3917 6.35519L16.5958 5.07083C16.8601 4.9168 17.1638 4.83531 17.4735 4.83531C17.7643 4.83531 18 5.06032 18 5.33789V9.94122C18 10.2188 17.7643 10.4438 17.4735 10.4438C17.1638 10.4438 16.8601 10.3623 16.5958 10.2083L14.3917 8.92391Z" fill="white"/>
<path d="M7 5.1933C7 4.53426 7.55964 4 8.25 4H14.125C14.8154 4 15.375 4.53426 15.375 5.1933V7.57989V9.96648C15.375 10.6255 14.8154 11.1598 14.125 11.1598H8.25C7.55964 11.1598 7 10.6255 7 9.96648V5.1933Z" fill="white"/>
<path d="M13.4882 21C12.7174 21 12.0925 20.4382 12.0925 19.7452V11.938H14.8839V19.7452C14.8839 20.4382 14.259 21 13.4882 21Z" fill="white"/>
<path d="M9.94529 21C9.17447 21 8.5496 20.4382 8.5496 19.7452V11.938H11.341V19.7452C11.341 20.4382 10.7161 21 9.94529 21Z" fill="white"/>
</svg>
